<svg width="18" height="18" viewBox="0 0 18 18" fill="none" xmlns="http://www.w3.org/2000/svg">
<path fill-rule="evenodd" clip-rule="evenodd" d="M6.79173 1.10792L4.64965 3.25H13.3505L11.2084 1.10792C10.9667 0.866252 10.9667 0.466252 11.2084 0.224585C11.4501 -0.0170817 11.8501 -0.0170817 12.0917 0.224585L15.1167 3.24959L15.1171 3.25H15.4832C16.2832 3.25 17.9582 3.25 17.9582 5.54167C17.9582 6.40833 17.7832 6.98333 17.3998 7.35833C17.1762 7.582 16.9125 7.70132 16.6353 7.76443L15.2941 14.75C14.9691 16.4417 14.4274 17.9584 11.4107 17.9584H6.38573C3.4024 17.9584 2.73573 16.1834 2.4774 14.6417L1.35638 7.76454C1.08274 7.70047 0.821933 7.58043 0.599837 7.35833C0.216504 6.98333 0.0415039 6.4 0.0415039 5.54167C0.0415039 3.25 1.7165 3.25 2.5165 3.25H2.88298L2.8834 3.24959L5.9084 0.224585C6.15007 -0.0170817 6.55007 -0.0170817 6.79173 0.224585C7.0334 0.466252 7.0334 0.866252 6.79173 1.10792ZM2.63364 7.83333L3.71073 14.4334C3.9524 15.9084 4.4524 16.7084 6.38573 16.7084H11.4107C13.5524 16.7084 13.7941 15.9584 14.0691 14.5084L15.3507 7.83333H2.63364ZM2.5165 6.58333H15.6748C16.0498 6.59167 16.3998 6.59167 16.5165 6.475C16.5748 6.41667 16.6998 6.21667 16.6998 5.54167C16.6998 4.6 16.4665 4.5 15.4748 4.5H2.5165C1.52484 4.5 1.2915 4.6 1.2915 5.54167C1.2915 6.21667 1.42484 6.41667 1.47484 6.475C1.5915 6.58333 1.94984 6.58333 2.3165 6.58333H2.5165ZM8.375 13.4167C8.375 13.7584 8.65833 14.0417 9 14.0417C9.34167 14.0417 9.625 13.7667 9.625 13.4167V12.5625H10.479C10.8207 12.5625 11.104 12.2792 11.104 11.9375C11.104 11.5958 10.8207 11.3125 10.479 11.3125H9.625V10.4584C9.625 10.1167 9.34167 9.83337 9 9.83337C8.65833 9.83337 8.375 10.1167 8.375 10.4584V11.3125H7.52067C7.179 11.3125 6.89567 11.5958 6.89567 11.9375C6.89567 12.2792 7.17067 12.5625 7.52067 12.5625H8.375V13.4167Z" fill="#494949"/>
</svg>
