<svg width="24" height="24" viewBox="0 0 24 24" fill="none" xmlns="http://www.w3.org/2000/svg">
<path d="M10.9298 22.7506C10.4498 22.7506 9.96985 22.6307 9.52985 22.3907C8.63985 21.8907 8.1098 21.0006 8.1098 19.9906V14.6407C8.1098 14.1307 7.77979 13.3806 7.46979 12.9906L3.6698 9.00064C3.0398 8.37064 2.5498 7.27063 2.5498 6.46063V4.14066C2.5498 2.53066 3.76982 1.27063 5.31982 1.27063H18.6598C20.1898 1.27063 21.4298 2.51065 21.4298 4.04065V6.26065C21.4298 7.31065 20.7998 8.52063 20.1998 9.11063C19.9098 9.40063 19.4298 9.40063 19.1398 9.11063C18.8498 8.82063 18.8498 8.34063 19.1398 8.05063C19.5098 7.68063 19.9298 6.85065 19.9298 6.26065V4.04065C19.9298 3.34065 19.3598 2.77063 18.6598 2.77063H5.31982C4.60982 2.77063 4.0498 3.37066 4.0498 4.14066V6.46063C4.0498 6.83063 4.34981 7.56065 4.73981 7.95065L8.58984 12.0006C9.09984 12.6306 9.59979 13.6907 9.59979 14.6407V19.9906C9.59979 20.6506 10.0498 20.9706 10.2498 21.0806C10.6798 21.3206 11.1898 21.3106 11.5898 21.0706L12.9898 20.1707C13.2798 20.0007 13.5598 19.4506 13.5598 19.0806C13.5598 18.6706 13.8998 18.3306 14.3098 18.3306C14.7198 18.3306 15.0598 18.6706 15.0598 19.0806C15.0598 19.9806 14.4998 21.0106 13.7898 21.4406L12.3998 22.3406C11.9498 22.6106 11.4398 22.7506 10.9298 22.7506Z" fill="#5C5C5C"/>
<path d="M16.0701 17.2715C13.8901 17.2715 12.1201 15.5015 12.1201 13.3215C12.1201 11.1415 13.8901 9.37146 16.0701 9.37146C18.2501 9.37146 20.0201 11.1415 20.0201 13.3215C20.0201 15.5015 18.2501 17.2715 16.0701 17.2715ZM16.0701 10.8715C14.7201 10.8715 13.6201 11.9715 13.6201 13.3215C13.6201 14.6715 14.7201 15.7715 16.0701 15.7715C17.4201 15.7715 18.5201 14.6715 18.5201 13.3215C18.5201 11.9715 17.4201 10.8715 16.0701 10.8715Z" fill="#5C5C5C"/>
<path d="M19.87 17.8701C19.68 17.8701 19.4901 17.8001 19.3401 17.6501L18.3401 16.6501C18.0501 16.3601 18.0501 15.8801 18.3401 15.5901C18.6301 15.3001 19.1101 15.3001 19.4001 15.5901L20.4001 16.5901C20.6901 16.8801 20.6901 17.3601 20.4001 17.6501C20.2601 17.7901 20.06 17.8701 19.87 17.8701Z" fill="#5C5C5C"/>
</svg>
