<svg width="44" height="44" viewBox="0 0 44 44" fill="none" xmlns="http://www.w3.org/2000/svg">
<rect width="44" height="44" rx="12" fill="white" fill-opacity="0.24"/>
<path d="M16.11 28.2496C15.93 28.2496 15.74 28.1796 15.6 28.0496C13.62 26.1896 11.25 23.0596 11.25 18.6896C11.25 15.1896 14.08 12.3496 17.56 12.3496C19.25 12.3496 20.83 13.0096 22 14.1896C23.17 13.0096 24.75 12.3496 26.44 12.3496C27.7 12.3496 28.92 12.7296 29.97 13.4296C30.31 13.6596 30.4 14.1296 30.17 14.4696C29.94 14.8096 29.47 14.8996 29.13 14.6696C28.34 14.1296 27.41 13.8397 26.45 13.8397C24.93 13.8397 23.52 14.5497 22.61 15.7797C22.33 16.1597 21.69 16.1597 21.41 15.7797C20.49 14.5497 19.09 13.8397 17.57 13.8397C14.92 13.8397 12.76 16.0096 12.76 18.6796C12.76 22.5196 14.87 25.2896 16.64 26.9496C16.94 27.2296 16.96 27.7096 16.68 28.0096C16.51 28.1696 16.31 28.2496 16.11 28.2496Z" fill="#292D32"/>
<path d="M21.9999 31.6498C21.6899 31.6498 21.3899 31.6098 21.1399 31.5198C20.3899 31.2598 19.4999 30.8398 18.6399 30.3298C18.2799 30.1198 18.1699 29.6598 18.3799 29.2998C18.5899 28.9498 19.0499 28.8298 19.4099 29.0398C20.1899 29.4998 20.9799 29.8798 21.6299 30.0998C21.8099 30.1598 22.1999 30.1598 22.3799 30.0998C24.6799 29.3098 31.2599 25.5198 31.2599 18.6798C31.2599 18.1798 31.1799 17.6898 31.0399 17.2198C30.9199 16.8198 31.1299 16.3998 31.5299 16.2798C31.9299 16.1598 32.3499 16.3798 32.4699 16.7698C32.6599 17.3898 32.7599 18.0298 32.7599 18.6798C32.7599 25.5598 26.6899 30.1998 22.8699 31.5098C22.6099 31.6098 22.3099 31.6498 21.9999 31.6498Z" fill="#292D32"/>
<path d="M12 32.7495C11.81 32.7495 11.6199 32.6795 11.4699 32.5295C11.1799 32.2395 11.1799 31.7595 11.4699 31.4695L31.4699 11.4695C31.7599 11.1795 32.24 11.1795 32.53 11.4695C32.82 11.7595 32.82 12.2395 32.53 12.5295L12.53 32.5295C12.38 32.6795 12.19 32.7495 12 32.7495Z" fill="#292D32"/>
</svg>
