<svg width="21" height="20" viewBox="0 0 21 20" fill="none" xmlns="http://www.w3.org/2000/svg">
<path d="M4.82507 5.31662C4.66673 5.31662 4.50007 5.24995 4.3834 5.13328C4.14173 4.89162 4.14173 4.49162 4.3834 4.24995L7.4084 1.22495C7.65007 0.983285 8.05007 0.983285 8.29173 1.22495C8.5334 1.46662 8.5334 1.86662 8.29173 2.10828L5.26673 5.13328C5.14173 5.24995 4.9834 5.31662 4.82507 5.31662Z" fill="#6E7378"/>
<path d="M16.1748 5.31662C16.0164 5.31662 15.8581 5.25828 15.7331 5.13328L12.7081 2.10828C12.4664 1.86662 12.4664 1.46662 12.7081 1.22495C12.9498 0.983285 13.3498 0.983285 13.5914 1.22495L16.6164 4.24995C16.8581 4.49162 16.8581 4.89162 16.6164 5.13328C16.4998 5.24995 16.3331 5.31662 16.1748 5.31662Z" fill="#6E7378"/>
<path d="M17.3415 8.83333C17.2832 8.83333 17.2248 8.83333 17.1665 8.83333H16.9748H3.83317C3.24984 8.84167 2.58317 8.84167 2.09984 8.35833C1.7165 7.98333 1.5415 7.4 1.5415 6.54167C1.5415 4.25 3.2165 4.25 4.0165 4.25H16.9832C17.7832 4.25 19.4582 4.25 19.4582 6.54167C19.4582 7.40833 19.2832 7.98333 18.8998 8.35833C18.4665 8.79167 17.8832 8.83333 17.3415 8.83333ZM4.0165 7.58333H17.1748C17.5498 7.59167 17.8998 7.59167 18.0165 7.475C18.0748 7.41667 18.1998 7.21667 18.1998 6.54167C18.1998 5.6 17.9665 5.5 16.9748 5.5H4.0165C3.02484 5.5 2.7915 5.6 2.7915 6.54167C2.7915 7.21667 2.92484 7.41667 2.97484 7.475C3.0915 7.58333 3.44984 7.58333 3.8165 7.58333H4.0165Z" fill="#6E7378"/>
<path d="M12.9083 18.9584H7.88329C4.89996 18.9584 4.23329 17.1834 3.97496 15.6417L2.79996 8.43337C2.74162 8.09171 2.97496 7.77504 3.31662 7.71671C3.64996 7.65837 3.97496 7.89171 4.03329 8.23337L5.20829 15.4334C5.44996 16.9084 5.94996 17.7084 7.88329 17.7084H12.9083C15.05 17.7084 15.2916 16.9584 15.5666 15.5084L16.9666 8.21671C17.0333 7.87504 17.3583 7.65004 17.7 7.72504C18.0416 7.79171 18.2583 8.11671 18.1916 8.45837L16.7916 15.75C16.4666 17.4417 15.925 18.9584 12.9083 18.9584Z" fill="#6E7378"/>
</svg>
