<svg width="20" height="21" viewBox="0 0 20 21" fill="none" xmlns="http://www.w3.org/2000/svg">
<path d="M9.26665 15.408C9.10832 15.408 8.94999 15.3497 8.82499 15.2247L7.57499 13.9747C7.33332 13.733 7.33332 13.333 7.57499 13.0914C7.81665 12.8497 8.21665 12.8497 8.45832 13.0914L9.28332 13.9164L11.55 11.8247C11.8 11.5914 12.2 11.608 12.4333 11.858C12.6667 12.108 12.65 12.508 12.4 12.7414L9.69165 15.2414C9.57499 15.3497 9.42499 15.408 9.26665 15.408Z" fill="#FE645E"/>
<path d="M4.325 5.51637C4.16667 5.51637 4 5.4497 3.88334 5.33304C3.64167 5.09137 3.64167 4.69137 3.88334 4.4497L6.90834 1.4247C7.15 1.18304 7.55 1.18304 7.79167 1.4247C8.03334 1.66637 8.03334 2.06637 7.79167 2.30804L4.76667 5.33304C4.64167 5.4497 4.48334 5.51637 4.325 5.51637Z" fill="#FE645E"/>
<path d="M15.675 5.51637C15.5167 5.51637 15.3583 5.45804 15.2333 5.33304L12.2083 2.30804C11.9667 2.06637 11.9667 1.66637 12.2083 1.4247C12.45 1.18304 12.85 1.18304 13.0917 1.4247L16.1167 4.4497C16.3583 4.69137 16.3583 5.09137 16.1167 5.33304C16 5.4497 15.8333 5.51637 15.675 5.51637Z" fill="#FE645E"/>
<path d="M16.8417 9.03304C16.7833 9.03304 16.725 9.03304 16.6667 9.03304H16.475H3.33332C2.74999 9.04137 2.08332 9.04137 1.59999 8.55804C1.21666 8.18304 1.04166 7.59971 1.04166 6.74137C1.04166 4.44971 2.71666 4.44971 3.51666 4.44971H16.4833C17.2833 4.44971 18.9583 4.44971 18.9583 6.74137C18.9583 7.60804 18.7833 8.18304 18.4 8.55804C17.9667 8.99137 17.3833 9.03304 16.8417 9.03304ZM3.51666 7.78304H16.675C17.05 7.79137 17.4 7.79137 17.5167 7.67471C17.575 7.61637 17.7 7.41637 17.7 6.74137C17.7 5.79971 17.4667 5.69971 16.475 5.69971H3.51666C2.52499 5.69971 2.29166 5.79971 2.29166 6.74137C2.29166 7.41637 2.42499 7.61637 2.47499 7.67471C2.59166 7.78304 2.94999 7.78304 3.31666 7.78304H3.51666Z" fill="#FE645E"/>
<path d="M12.4083 19.158H7.38332C4.39999 19.158 3.73332 17.383 3.47499 15.8414L2.29999 8.63303C2.24166 8.29137 2.47499 7.9747 2.81666 7.91637C3.14999 7.85803 3.47499 8.09137 3.53332 8.43303L4.70832 15.633C4.94999 17.108 5.44999 17.908 7.38332 17.908H12.4083C14.55 17.908 14.7917 17.158 15.0667 15.708L16.4667 8.41637C16.5333 8.0747 16.8583 7.8497 17.2 7.9247C17.5417 7.99137 17.7583 8.31637 17.6917 8.65803L16.2917 15.9497C15.9667 17.6414 15.425 19.158 12.4083 19.158Z" fill="#FE645E"/>
</svg>
