<svg width="20" height="21" viewBox="0 0 20 21" fill="none" xmlns="http://www.w3.org/2000/svg">
<path d="M14.5333 13.008C14.375 13.008 14.2167 12.9497 14.0917 12.8247C13.85 12.583 13.85 12.183 14.0917 11.9414L15.7833 10.2497L14.0917 8.55804C13.85 8.31637 13.85 7.91637 14.0917 7.67471C14.3333 7.43304 14.7333 7.43304 14.975 7.67471L17.1083 9.80804C17.35 10.0497 17.35 10.4497 17.1083 10.6914L14.975 12.8247C14.85 12.9497 14.6917 13.008 14.5333 13.008Z" fill="#6E7378"/>
<path d="M16.6083 10.8747H8.13333C7.79166 10.8747 7.50833 10.5914 7.50833 10.2497C7.50833 9.90804 7.79166 9.62471 8.13333 9.62471H16.6083C16.95 9.62471 17.2333 9.90804 17.2333 10.2497C17.2333 10.5914 16.95 10.8747 16.6083 10.8747Z" fill="#6E7378"/>
<path d="M9.8 17.4914C5.50833 17.4914 2.50833 14.4914 2.50833 10.1997C2.50833 5.90804 5.50833 2.90804 9.8 2.90804C10.1417 2.90804 10.425 3.19137 10.425 3.53304C10.425 3.87471 10.1417 4.15804 9.8 4.15804C6.24166 4.15804 3.75833 6.64137 3.75833 10.1997C3.75833 13.758 6.24166 16.2414 9.8 16.2414C10.1417 16.2414 10.425 16.5247 10.425 16.8664C10.425 17.208 10.1417 17.4914 9.8 17.4914Z" fill="#6E7378"/>
</svg>
