<svg width="18" height="18" viewBox="0 0 18 18" fill="none" xmlns="http://www.w3.org/2000/svg">
<path fill-rule="evenodd" clip-rule="evenodd" d="M17.2917 7.08333C16.95 7.08333 16.6667 6.8 16.6667 6.45833V4.79167C16.6667 2.64167 15.275 1.25 13.125 1.25H4.79167C2.64167 1.25 1.25 2.64167 1.25 4.79167V6.45833C1.25 6.8 0.966667 7.08333 0.625 7.08333C0.283333 7.08333 0 6.8 0 6.45833V4.79167C0 1.925 1.925 0 4.79167 0H13.125C15.9917 0 17.9167 1.925 17.9167 4.79167V6.45833C17.9167 6.8 17.6333 7.08333 17.2917 7.08333ZM13.125 17.9163H4.79167C1.925 17.9163 0 15.9913 0 13.1247V11.458C0 11.1163 0.283333 10.833 0.625 10.833C0.966667 10.833 1.25 11.1163 1.25 11.458V13.1247C1.25 15.2747 2.64167 16.6663 4.79167 16.6663H13.125C15.275 16.6663 16.6667 15.2747 16.6667 13.1247V11.458C16.6667 11.1163 16.95 10.833 17.2917 10.833C17.6333 10.833 17.9167 11.1163 17.9167 11.458V13.1247C17.9167 15.9913 15.9917 17.9163 13.125 17.9163ZM13.1336 7.54032L9.58337 9.59211V13.2163C9.62173 13.2012 9.65805 13.1844 9.6919 13.166L12.3586 11.6827C12.7669 11.4577 13.1336 10.8244 13.1336 10.366V7.54101C13.1336 7.54078 13.1336 7.54055 13.1336 7.54032ZM8.95011 8.51675L12.5985 6.40533C12.522 6.33171 12.4412 6.26984 12.3586 6.22433L9.6919 4.74102C9.30857 4.53269 8.60856 4.53269 8.22523 4.74102L5.55856 6.22433C5.47435 6.27073 5.39191 6.33451 5.31409 6.41053L8.95011 8.51675ZM8.33337 9.59704L4.78357 7.54752V10.366C4.78357 10.8327 5.15023 11.4577 5.55856 11.6827L8.22523 13.166C8.25897 13.1843 8.29516 13.2011 8.33337 13.2162V9.59704ZM7.6169 14.266C8.00023 14.4743 8.47523 14.5827 8.95856 14.5827C9.4419 14.5827 9.9169 14.4743 10.3002 14.266L12.9669 12.7827C13.7586 12.3327 14.3836 11.2744 14.3836 10.366V7.54101C14.3836 6.62434 13.7669 5.56604 12.9669 5.12437L10.3002 3.64102C9.53357 3.21602 8.38356 3.21602 7.6169 3.64102L4.95023 5.12437C4.15857 5.57437 3.53357 6.63268 3.53357 7.54101V10.366C3.53357 11.2827 4.15023 12.341 4.95023 12.7827L7.6169 14.266Z" fill="#6E7278"/>
</svg>
