<svg width="20" height="21" viewBox="0 0 20 21" fill="none" xmlns="http://www.w3.org/2000/svg">
<path d="M9.16666 17.8916C4.68332 17.8916 1.04166 14.2499 1.04166 9.7666C1.04166 5.28327 4.68332 1.6416 9.16666 1.6416C9.50832 1.6416 9.79166 1.92493 9.79166 2.2666C9.79166 2.60827 9.50832 2.8916 9.16666 2.8916C5.37499 2.8916 2.29166 5.97493 2.29166 9.7666C2.29166 13.5583 5.37499 16.6416 9.16666 16.6416C12.9583 16.6416 16.0417 13.5583 16.0417 9.7666C16.0417 9.42493 16.325 9.1416 16.6667 9.1416C17.0083 9.1416 17.2917 9.42493 17.2917 9.7666C17.2917 14.2499 13.65 17.8916 9.16666 17.8916Z" fill="#FE645E"/>
<path d="M16.6667 5.3916H11.6667C11.325 5.3916 11.0417 5.10827 11.0417 4.7666C11.0417 4.42493 11.325 4.1416 11.6667 4.1416H16.6667C17.0083 4.1416 17.2917 4.42493 17.2917 4.7666C17.2917 5.10827 17.0083 5.3916 16.6667 5.3916Z" fill="#FE645E"/>
<path d="M14.1667 7.8916H11.6667C11.325 7.8916 11.0417 7.60827 11.0417 7.2666C11.0417 6.92493 11.325 6.6416 11.6667 6.6416H14.1667C14.5083 6.6416 14.7917 6.92493 14.7917 7.2666C14.7917 7.60827 14.5083 7.8916 14.1667 7.8916Z" fill="#FE645E"/>
<path d="M16.8001 19.5913C16.7334 19.5913 16.6667 19.5829 16.6084 19.5746C16.2167 19.5246 15.5084 19.2579 15.1084 18.0663C14.9001 17.4413 14.9751 16.8163 15.3167 16.3413C15.6584 15.8663 16.2334 15.5996 16.8917 15.5996C17.7417 15.5996 18.4084 15.9246 18.7084 16.4996C19.0084 17.0746 18.9251 17.8079 18.4501 18.5163C17.8584 19.4079 17.2167 19.5913 16.8001 19.5913ZM16.3001 17.6746C16.4417 18.1079 16.6417 18.3246 16.7751 18.3413C16.9084 18.3579 17.1584 18.1996 17.4167 17.8246C17.6584 17.4663 17.6751 17.2079 17.6167 17.0913C17.5584 16.9746 17.3251 16.8496 16.8917 16.8496C16.6334 16.8496 16.4417 16.9329 16.3334 17.0746C16.2334 17.2163 16.2167 17.4329 16.3001 17.6746Z" fill="#FE645E"/>
</svg>
