<svg width="20" height="21" viewBox="0 0 20 21" fill="none" xmlns="http://www.w3.org/2000/svg">
<path d="M10 13.3247C8.275 13.3247 6.875 11.9247 6.875 10.1997C6.875 8.47471 8.275 7.07471 10 7.07471C11.725 7.07471 13.125 8.47471 13.125 10.1997C13.125 11.9247 11.725 13.3247 10 13.3247ZM10 8.32471C8.96667 8.32471 8.125 9.16637 8.125 10.1997C8.125 11.233 8.96667 12.0747 10 12.0747C11.0333 12.0747 11.875 11.233 11.875 10.1997C11.875 9.16637 11.0333 8.32471 10 8.32471Z" fill="#6E7378"/>
<path d="M12.675 18.6914C12.5 18.6914 12.325 18.6664 12.15 18.6247C11.6333 18.483 11.2 18.158 10.925 17.6997L10.825 17.533C10.3333 16.683 9.65832 16.683 9.16666 17.533L9.07499 17.6914C8.79999 18.158 8.36666 18.4914 7.84999 18.6247C7.32499 18.7664 6.78332 18.6914 6.32499 18.4164L4.89166 17.5914C4.38332 17.2997 4.01666 16.8247 3.85832 16.2497C3.70832 15.6747 3.78332 15.083 4.07499 14.5747C4.31666 14.1497 4.38332 13.7664 4.24166 13.5247C4.09999 13.283 3.74166 13.1414 3.24999 13.1414C2.03332 13.1414 1.04166 12.1497 1.04166 10.933V9.46637C1.04166 8.24971 2.03332 7.25804 3.24999 7.25804C3.74166 7.25804 4.09999 7.11637 4.24166 6.87471C4.38332 6.63304 4.32499 6.24971 4.07499 5.82471C3.78332 5.31637 3.70832 4.71637 3.85832 4.14971C4.00832 3.57471 4.37499 3.09971 4.89166 2.80804L6.33332 1.98304C7.27499 1.42471 8.51666 1.74971 9.08332 2.70804L9.18332 2.87471C9.67499 3.72471 10.35 3.72471 10.8417 2.87471L10.9333 2.71637C11.5 1.74971 12.7417 1.42471 13.6917 1.99137L15.125 2.81637C15.6333 3.10804 16 3.58304 16.1583 4.15804C16.3083 4.73304 16.2333 5.32471 15.9417 5.83304C15.7 6.25804 15.6333 6.64137 15.775 6.88304C15.9167 7.12471 16.275 7.26637 16.7667 7.26637C17.9833 7.26637 18.975 8.25804 18.975 9.47471V10.9414C18.975 12.158 17.9833 13.1497 16.7667 13.1497C16.275 13.1497 15.9167 13.2914 15.775 13.533C15.6333 13.7747 15.6917 14.158 15.9417 14.583C16.2333 15.0914 16.3167 15.6914 16.1583 16.258C16.0083 16.833 15.6417 17.308 15.125 17.5997L13.6833 18.4247C13.3667 18.5997 13.025 18.6914 12.675 18.6914ZM9.99999 15.608C10.7417 15.608 11.4333 16.0747 11.9083 16.8997L12 17.058C12.1 17.233 12.2667 17.358 12.4667 17.408C12.6667 17.458 12.8667 17.433 13.0333 17.333L14.475 16.4997C14.6917 16.3747 14.8583 16.1664 14.925 15.9164C14.9917 15.6664 14.9583 15.408 14.8333 15.1914C14.3583 14.3747 14.3 13.533 14.6667 12.8914C15.0333 12.2497 15.7917 11.883 16.7417 11.883C17.275 11.883 17.7 11.458 17.7 10.9247V9.45804C17.7 8.93304 17.275 8.49971 16.7417 8.49971C15.7917 8.49971 15.0333 8.13304 14.6667 7.49137C14.3 6.84971 14.3583 6.00804 14.8333 5.19137C14.9583 4.97471 14.9917 4.71637 14.925 4.46637C14.8583 4.21637 14.7 4.01637 14.4833 3.88304L13.0417 3.05804C12.6833 2.84137 12.2083 2.96637 11.9917 3.33304L11.9 3.49137C11.425 4.31637 10.7333 4.78304 9.99166 4.78304C9.24999 4.78304 8.55832 4.31637 8.08332 3.49137L7.99166 3.32471C7.78332 2.97471 7.31666 2.84971 6.95832 3.05804L5.51666 3.89137C5.29999 4.01637 5.13332 4.22471 5.06666 4.47471C4.99999 4.72471 5.03332 4.98304 5.15832 5.19971C5.63332 6.01637 5.69166 6.85804 5.32499 7.49971C4.95832 8.14137 4.19999 8.50804 3.24999 8.50804C2.71666 8.50804 2.29166 8.93304 2.29166 9.46637V10.933C2.29166 11.458 2.71666 11.8914 3.24999 11.8914C4.19999 11.8914 4.95832 12.258 5.32499 12.8997C5.69166 13.5414 5.63332 14.383 5.15832 15.1997C5.03332 15.4164 4.99999 15.6747 5.06666 15.9247C5.13332 16.1747 5.29166 16.3747 5.50832 16.508L6.94999 17.333C7.12499 17.4414 7.33332 17.4664 7.52499 17.4164C7.72499 17.3664 7.89166 17.233 7.99999 17.058L8.09166 16.8997C8.56666 16.083 9.25832 15.608 9.99999 15.608Z" fill="#6E7378"/>
</svg>
