<svg width="20" height="21" viewBox="0 0 20 21" fill="none" xmlns="http://www.w3.org/2000/svg">
<path d="M9.99999 18.641C9.81666 18.641 9.54166 18.6243 9.28332 18.5327C6.09999 17.441 1.04166 13.5743 1.04166 7.84097C1.04166 4.92431 3.39999 2.55762 6.29999 2.55762C7.70832 2.55762 9.02499 3.10764 9.99999 4.09097C10.975 3.10764 12.2917 2.55762 13.7 2.55762C16.6 2.55762 18.9583 4.92431 18.9583 7.84097C18.9583 8.84931 18.8083 9.84095 18.5083 10.791C18.4083 11.116 18.05 11.3076 17.725 11.1993C17.3917 11.0993 17.2167 10.741 17.3167 10.416C17.575 9.591 17.7083 8.72431 17.7083 7.84931C17.7083 5.62431 15.9083 3.81596 13.7 3.81596C12.4333 3.81596 11.2583 4.40762 10.5 5.42429C10.2667 5.74095 9.73333 5.74095 9.49999 5.42429C8.73333 4.39929 7.56665 3.81596 6.29999 3.81596C4.09165 3.81596 2.29166 5.62431 2.29166 7.84931C2.29166 13.5493 7.76665 16.7076 9.69165 17.366C9.74165 17.3826 9.85832 17.4076 9.99999 17.4076C10.3417 17.4076 10.625 17.691 10.625 18.0326C10.625 18.3743 10.3417 18.641 9.99999 18.641Z" fill="#FE645E"/>
<path d="M14.7834 18.725C12.9667 18.725 11.4917 17.2499 11.4917 15.4333C11.4917 13.6166 12.9667 12.1416 14.7834 12.1416C16.6 12.1416 18.075 13.6166 18.075 15.4333C18.075 17.2499 16.6 18.725 14.7834 18.725ZM14.7834 13.3916C13.6584 13.3916 12.7417 14.3083 12.7417 15.4333C12.7417 16.5583 13.6584 17.475 14.7834 17.475C15.9084 17.475 16.825 16.5583 16.825 15.4333C16.825 14.3083 15.9084 13.3916 14.7834 13.3916Z" fill="#FE645E"/>
<path d="M17.95 19.2248C17.7917 19.2248 17.6333 19.1665 17.5083 19.0415L16.675 18.2081C16.4333 17.9665 16.4333 17.5665 16.675 17.3248C16.9167 17.0831 17.3167 17.0831 17.5583 17.3248L18.3917 18.1581C18.6333 18.3998 18.6333 18.7998 18.3917 19.0415C18.2667 19.1581 18.1083 19.2248 17.95 19.2248Z" fill="#FE645E"/>
</svg>
